<svg width="22" height="18" viewBox="0 0 22 18" fill="none" xmlns="http://www.w3.org/2000/svg">
<path d="M15.3044 18H6.60871C6.60871 18 5.7503 15.7235 5.04349 14.336C3.50359 11.3133 0 7.24351 0 7.24351L7.30437 11.4L10.9565 0L14.6956 11.4004L22 7.24351C22 7.24351 18.4823 11.3171 16.9131 14.336C16.1918 15.7236 15.3044 18 15.3044 18Z" fill="#FFD176"/>
<path d="M15.3044 18H6.60871C6.60871 18 5.7503 15.7235 5.04349 14.336C3.50359 11.3133 0 7.24351 0 7.24351L7.30437 11.4L10.9565 0L14.6956 11.4004L22 7.24351C22 7.24351 18.4823 11.3171 16.9131 14.336C16.1918 15.7236 15.3044 18 15.3044 18Z" fill="url(#paint0_radial_302_91)" fill-opacity="0.36"/>
<path d="M14.6964 11.3997L14.6956 11.4004L13.7869 8.63116L13.7877 8.63043L14.6964 11.3997Z" fill="#FFD176"/>
<path d="M14.6964 11.3997L14.6956 11.4004L13.7869 8.63116L13.7877 8.63043L14.6964 11.3997Z" fill="url(#paint1_radial_302_91)" fill-opacity="0.36"/>
<path d="M17.2183 8.9754L15.1935 10.1282L14.5069 8.03644L17.3921 5.65679L17.2183 8.9754Z" fill="#FFD176"/>
<path d="M17.2183 8.9754L15.1935 10.1282L14.5069 8.03644L17.3921 5.65679L17.2183 8.9754Z" fill="url(#paint2_radial_302_91)" fill-opacity="0.36"/>
<path d="M7.45696 8.07818L6.80234 10.1238L4.67279 8.91168L4.5227 5.65679L7.45696 8.07818Z" fill="#FFD176"/>
<path d="M7.45696 8.07818L6.80234 10.1238L4.67279 8.91168L4.5227 5.65679L7.45696 8.07818Z" fill="url(#paint3_radial_302_91)" fill-opacity="0.36"/>
<defs>
<radialGradient id="paint0_radial_302_91" cx="0" cy="0" r="1" gradientUnits="userSpaceOnUse" gradientTransform="translate(10.9575 8.52855) scale(6.43463 10.0814)">
<stop stop-color="#FFF1D5"/>
<stop offset="1" stop-color="#AD7200" stop-opacity="0.9"/>
</radialGradient>
<radialGradient id="paint1_radial_302_91" cx="0" cy="0" r="1" gradientUnits="userSpaceOnUse" gradientTransform="translate(10.9575 8.52855) scale(6.43463 10.0814)">
<stop stop-color="#FFF1D5"/>
<stop offset="1" stop-color="#AD7200" stop-opacity="0.9"/>
</radialGradient>
<radialGradient id="paint2_radial_302_91" cx="0" cy="0" r="1" gradientUnits="userSpaceOnUse" gradientTransform="translate(10.9575 8.52855) scale(6.43463 10.0814)">
<stop stop-color="#FFF1D5"/>
<stop offset="1" stop-color="#AD7200" stop-opacity="0.9"/>
</radialGradient>
<radialGradient id="paint3_radial_302_91" cx="0" cy="0" r="1" gradientUnits="userSpaceOnUse" gradientTransform="translate(10.9575 8.52855) scale(6.43463 10.0814)">
<stop stop-color="#FFF1D5"/>
<stop offset="1" stop-color="#AD7200" stop-opacity="0.9"/>
</radialGradient>
</defs>
</svg>
