<svg width="37" height="30" viewBox="0 0 37 30" fill="none" xmlns="http://www.w3.org/2000/svg">
<path d="M25.1429 30H10.8571C10.8571 30 9.44691 26.2058 8.28572 23.8934C5.75588 18.8555 0 12.0725 0 12.0725L12 19L18 0L24.1428 19.0007L36.1428 12.0725C36.1428 12.0725 30.3637 18.8619 27.7857 23.8934C26.6008 26.206 25.1429 30 25.1429 30Z" fill="#FFD176"/>
<path d="M25.1429 30H10.8571C10.8571 30 9.44691 26.2058 8.28572 23.8934C5.75588 18.8555 0 12.0725 0 12.0725L12 19L18 0L24.1428 19.0007L36.1428 12.0725C36.1428 12.0725 30.3637 18.8619 27.7857 23.8934C26.6008 26.206 25.1429 30 25.1429 30Z" fill="url(#paint0_radial_396_12)" fill-opacity="0.36"/>
<path d="M13.4344 14.4554L12 19L11.9989 18.9993L13.4335 14.4544L13.4344 14.4554Z" fill="#FFD176"/>
<path d="M13.4344 14.4554L12 19L11.9989 18.9993L13.4335 14.4544L13.4344 14.4554Z" fill="url(#paint1_radial_396_12)" fill-opacity="0.36"/>
<path d="M28.286 14.9583L24.9579 16.8802L23.8309 13.3948L28.5712 9.42801L28.286 14.9583Z" fill="#FFD176"/>
<path d="M28.286 14.9583L24.9579 16.8802L23.8309 13.3948L28.5712 9.42801L28.286 14.9583Z" fill="url(#paint2_radial_396_12)" fill-opacity="0.36"/>
<path d="M12.2489 13.4632L11.1727 16.8733L7.67468 14.8538L7.42859 9.42801L12.2489 13.4632Z" fill="#FFD176"/>
<path d="M12.2489 13.4632L11.1727 16.8733L7.67468 14.8538L7.42859 9.42801L12.2489 13.4632Z" fill="url(#paint3_radial_396_12)" fill-opacity="0.36"/>
<defs>
<radialGradient id="paint0_radial_396_12" cx="0" cy="0" r="1" gradientUnits="userSpaceOnUse" gradientTransform="translate(18 9.55789) scale(10.5713 33.1467)">
<stop stop-color="#FFF1D5"/>
<stop offset="1" stop-color="#AD7200" stop-opacity="0.9"/>
</radialGradient>
<radialGradient id="paint1_radial_396_12" cx="0" cy="0" r="1" gradientUnits="userSpaceOnUse" gradientTransform="translate(18 9.55789) scale(10.5713 33.1467)">
<stop stop-color="#FFF1D5"/>
<stop offset="1" stop-color="#AD7200" stop-opacity="0.9"/>
</radialGradient>
<radialGradient id="paint2_radial_396_12" cx="0" cy="0" r="1" gradientUnits="userSpaceOnUse" gradientTransform="translate(18 9.55789) scale(10.5713 33.1467)">
<stop stop-color="#FFF1D5"/>
<stop offset="1" stop-color="#AD7200" stop-opacity="0.9"/>
</radialGradient>
<radialGradient id="paint3_radial_396_12" cx="0" cy="0" r="1" gradientUnits="userSpaceOnUse" gradientTransform="translate(18 9.55789) scale(10.5713 33.1467)">
<stop stop-color="#FFF1D5"/>
<stop offset="1" stop-color="#AD7200" stop-opacity="0.9"/>
</radialGradient>
</defs>
</svg>
