<svg width="246" height="30" viewBox="0 0 246 30" fill="none" xmlns="http://www.w3.org/2000/svg">
<path d="M25.1429 30H10.8571C10.8571 30 9.44691 26.2058 8.28572 23.8934C5.75588 18.8555 0 12.0725 0 12.0725L12 19L18 0L24.1428 19.0007L36.1428 12.0725C36.1428 12.0725 30.3637 18.8619 27.7857 23.8934C26.6008 26.206 25.1429 30 25.1429 30Z" fill="#FFD176"/>
<path d="M25.1429 30H10.8571C10.8571 30 9.44691 26.2058 8.28572 23.8934C5.75588 18.8555 0 12.0725 0 12.0725L12 19L18 0L24.1428 19.0007L36.1428 12.0725C36.1428 12.0725 30.3637 18.8619 27.7857 23.8934C26.6008 26.206 25.1429 30 25.1429 30Z" fill="url(#paint0_radial_272_13)" fill-opacity="0.36"/>
<path d="M13.4346 14.4554L12 19.0003L11.999 18.9993L13.4336 14.4544L13.4346 14.4554ZM28.2861 14.9583L24.958 16.8802L23.8311 13.3948L28.5713 9.42802L28.2861 14.9583ZM12.249 13.4632L11.1729 16.8733L7.6748 14.8538L7.42871 9.42802L12.249 13.4632ZM17.9619 0.116493L17.9521 0.14872V0.147743L17.9619 0.115517V0.116493Z" fill="#FFD176"/>
<path d="M13.4346 14.4554L12 19.0003L11.999 18.9993L13.4336 14.4544L13.4346 14.4554ZM28.2861 14.9583L24.958 16.8802L23.8311 13.3948L28.5713 9.42802L28.2861 14.9583ZM12.249 13.4632L11.1729 16.8733L7.6748 14.8538L7.42871 9.42802L12.249 13.4632ZM17.9619 0.116493L17.9521 0.14872V0.147743L17.9619 0.115517V0.116493Z" fill="url(#paint1_radial_272_13)" fill-opacity="0.36"/>
<path d="M48.8426 22.032L49.1786 21.724C52.3986 24.86 56.3186 24.916 58.3346 24.916C62.5346 24.916 65.7266 21.332 65.7266 15.06H57.8586V14.612H65.7266C65.5306 9.04 62.9266 5.512 58.3346 5.512C55.4786 5.512 51.1386 6.66 50.5786 10.048L50.1026 9.992C50.4666 7.78 53.0706 5.064 58.3346 5.064C64.9426 5.064 68.5826 9.348 68.5826 15.256C68.5826 21.08 64.9426 25.448 58.3346 25.448C56.2346 25.448 52.2026 25.336 48.8426 22.032ZM84.0287 5.484V5.932H73.6127V25H70.9527V5.484H84.0287ZM84.1773 15.256C84.1773 8.256 89.4413 5.064 95.2093 5.064C101.005 5.064 106.269 8.256 106.269 15.256C106.269 22.396 101.005 25.42 95.2093 25.448C89.4413 25.42 84.1773 22.396 84.1773 15.256ZM95.2093 5.512C91.0373 5.512 86.9773 7.976 86.9773 15.256C86.9773 22.564 91.0373 25.028 95.2093 25.028C99.4093 25.028 103.469 22.564 103.469 15.256C103.469 7.976 99.4093 5.512 95.2093 5.512ZM111.32 25H108.66V5.484H111.32V24.524C113.728 24.524 121.232 23.6 121.792 12.736V5.484H124.452V25H121.792V16.236C120.588 21.444 116.808 25 111.32 25ZM137.082 25.448C130.474 25.448 126.834 21.08 126.834 15.256C126.834 9.348 130.474 5.064 137.082 5.064C142.346 5.064 144.95 7.78 145.314 9.992L144.838 10.048C144.278 6.66 139.938 5.512 137.082 5.512C132.322 5.512 129.69 9.32 129.69 15.256C129.69 21.528 132.882 24.916 137.082 24.916C139.098 24.916 143.018 24.86 146.238 21.724L146.574 22.032C143.214 25.336 139.182 25.448 137.082 25.448ZM153.66 5.932H145.596V5.484H164.356V5.932H156.32V25H153.66V5.932ZM176.964 5.484H179.624V14.64H182.116C182.648 14.64 183.152 14.668 183.656 14.696L189.368 5.484H189.9L184.16 14.752C189.088 15.368 191.664 18.336 191.664 23.88V25H188.612V23.88C188.612 17.272 186.596 15.032 182.424 15.032H179.624V24.972H176.964V5.484ZM193.494 25L200.214 5.484H203.098L210.686 25H207.83L200.494 6.156L193.998 25H193.494ZM217.678 19.652L208.998 5.484H212.078L220.31 19.064C221.906 14.444 224.006 8.424 225.014 5.484H225.518C224.118 9.488 220.562 19.82 219.162 23.74C218.77 24.832 217.51 25.588 216.25 25.532C214.598 25.448 213.366 24.272 213.282 22.564C213.198 20.94 214.458 19.652 216.11 19.652H217.678ZM216.11 20.1C214.85 20.1 213.674 21.332 213.758 22.564C213.842 23.824 214.962 24.972 216.194 25.056C217.286 25.14 218.406 24.468 218.714 23.6C219.022 22.704 219.47 21.5 219.946 20.1H216.11ZM227.769 25V5.484H241.545V5.932H230.429V12.68H235.749C240.061 12.68 243.477 14.5 243.477 18.812C243.477 23.684 241.069 25 235.749 25H227.769ZM230.429 24.496H235.749C239.641 24.496 240.733 22.788 240.733 18.812C240.733 14.864 238.661 13.184 235.749 13.184H230.429V24.496Z" fill="#FFD176"/>
<path d="M48.8426 22.032L49.1786 21.724C52.3986 24.86 56.3186 24.916 58.3346 24.916C62.5346 24.916 65.7266 21.332 65.7266 15.06H57.8586V14.612H65.7266C65.5306 9.04 62.9266 5.512 58.3346 5.512C55.4786 5.512 51.1386 6.66 50.5786 10.048L50.1026 9.992C50.4666 7.78 53.0706 5.064 58.3346 5.064C64.9426 5.064 68.5826 9.348 68.5826 15.256C68.5826 21.08 64.9426 25.448 58.3346 25.448C56.2346 25.448 52.2026 25.336 48.8426 22.032ZM84.0287 5.484V5.932H73.6127V25H70.9527V5.484H84.0287ZM84.1773 15.256C84.1773 8.256 89.4413 5.064 95.2093 5.064C101.005 5.064 106.269 8.256 106.269 15.256C106.269 22.396 101.005 25.42 95.2093 25.448C89.4413 25.42 84.1773 22.396 84.1773 15.256ZM95.2093 5.512C91.0373 5.512 86.9773 7.976 86.9773 15.256C86.9773 22.564 91.0373 25.028 95.2093 25.028C99.4093 25.028 103.469 22.564 103.469 15.256C103.469 7.976 99.4093 5.512 95.2093 5.512ZM111.32 25H108.66V5.484H111.32V24.524C113.728 24.524 121.232 23.6 121.792 12.736V5.484H124.452V25H121.792V16.236C120.588 21.444 116.808 25 111.32 25ZM137.082 25.448C130.474 25.448 126.834 21.08 126.834 15.256C126.834 9.348 130.474 5.064 137.082 5.064C142.346 5.064 144.95 7.78 145.314 9.992L144.838 10.048C144.278 6.66 139.938 5.512 137.082 5.512C132.322 5.512 129.69 9.32 129.69 15.256C129.69 21.528 132.882 24.916 137.082 24.916C139.098 24.916 143.018 24.86 146.238 21.724L146.574 22.032C143.214 25.336 139.182 25.448 137.082 25.448ZM153.66 5.932H145.596V5.484H164.356V5.932H156.32V25H153.66V5.932ZM176.964 5.484H179.624V14.64H182.116C182.648 14.64 183.152 14.668 183.656 14.696L189.368 5.484H189.9L184.16 14.752C189.088 15.368 191.664 18.336 191.664 23.88V25H188.612V23.88C188.612 17.272 186.596 15.032 182.424 15.032H179.624V24.972H176.964V5.484ZM193.494 25L200.214 5.484H203.098L210.686 25H207.83L200.494 6.156L193.998 25H193.494ZM217.678 19.652L208.998 5.484H212.078L220.31 19.064C221.906 14.444 224.006 8.424 225.014 5.484H225.518C224.118 9.488 220.562 19.82 219.162 23.74C218.77 24.832 217.51 25.588 216.25 25.532C214.598 25.448 213.366 24.272 213.282 22.564C213.198 20.94 214.458 19.652 216.11 19.652H217.678ZM216.11 20.1C214.85 20.1 213.674 21.332 213.758 22.564C213.842 23.824 214.962 24.972 216.194 25.056C217.286 25.14 218.406 24.468 218.714 23.6C219.022 22.704 219.47 21.5 219.946 20.1H216.11ZM227.769 25V5.484H241.545V5.932H230.429V12.68H235.749C240.061 12.68 243.477 14.5 243.477 18.812C243.477 23.684 241.069 25 235.749 25H227.769ZM230.429 24.496H235.749C239.641 24.496 240.733 22.788 240.733 18.812C240.733 14.864 238.661 13.184 235.749 13.184H230.429V24.496Z" fill="url(#paint2_radial_272_13)" fill-opacity="0.36"/>
<defs>
<radialGradient id="paint0_radial_272_13" cx="0" cy="0" r="1" gradientUnits="userSpaceOnUse" gradientTransform="translate(18.0714 15) scale(18.0714 52.6562)">
<stop stop-color="#FFF1D5"/>
<stop offset="1" stop-color="#AD7200" stop-opacity="0.9"/>
</radialGradient>
<radialGradient id="paint1_radial_272_13" cx="0" cy="0" r="1" gradientUnits="userSpaceOnUse" gradientTransform="translate(18 14.2141) scale(10.5713 16.8013)">
<stop stop-color="#FFF1D5"/>
<stop offset="1" stop-color="#AD7200" stop-opacity="0.9"/>
</radialGradient>
<radialGradient id="paint2_radial_272_13" cx="0" cy="0" r="1" gradientUnits="userSpaceOnUse" gradientTransform="translate(146.643 15) scale(98.5 35.1042)">
<stop stop-color="#FFF1D5"/>
<stop offset="1" stop-color="#AD7200" stop-opacity="0.9"/>
</radialGradient>
</defs>
</svg>
