<svg width="99" height="48" viewBox="0 0 99 48" fill="none" xmlns="http://www.w3.org/2000/svg">
<path d="M53.3516 22C55.0667 27.2764 58.3413 31.9232 62.7607 35.3145C67.5628 38.9992 73.4471 40.9961 79.5 40.9961V41.0762C79.4903 41.9708 79.3103 42.8556 78.9678 43.6826C78.6154 44.5333 78.0993 45.307 77.4482 45.958C76.7972 46.6091 76.0235 47.1252 75.1729 47.4775C74.441 47.7806 73.6641 47.9566 72.875 48H53C49.134 48 46 44.866 46 41H58.6699C58.6129 40.9568 58.5549 40.9147 58.498 40.8711C54.348 37.6867 51.0021 33.6199 48.6787 29H28C24.134 29 21 25.866 21 22H53.3516Z" fill="#E4CDA0"/>
<path d="M69.2646 0C67.5886 1.64058 66.2479 3.61126 65.3389 5.80566C63.8653 9.36326 63.606 13.3078 64.6025 17.0273C65.5992 20.7468 67.7957 24.0337 70.8506 26.3779C73.9056 28.7221 77.6492 29.9932 81.5 29.9932V30H92V28.3438C91.9803 27.149 91.7379 25.9682 91.2803 24.8633C90.8027 23.7102 90.1032 22.6618 89.2207 21.7793C88.3382 20.8968 87.2898 20.1973 86.1367 19.7197C84.9837 19.2422 83.748 18.9961 82.5 18.9961V19H77.5C73.634 19 70.5 15.866 70.5 12H82.5C84.6668 12 86.8126 12.4267 88.8145 13.2559C90.8163 14.0851 92.6349 15.3009 94.167 16.833C95.6991 18.3651 96.9149 20.1837 97.7441 22.1855C98.5095 24.0333 98.9317 26.0037 98.9922 28H99V37H81V36.9951C75.7833 36.8888 70.7314 35.1192 66.585 31.9375C62.3062 28.6543 59.2309 24.0503 57.835 18.8408C57.7601 18.5615 57.6917 18.281 57.627 18H17C13.134 18 10 14.866 10 11H57.0469C57.1294 9.65509 57.3226 8.31716 57.626 7H7C3.13401 7 0 3.86599 0 0H69.2646Z" fill="#E4CDA0"/>
<path d="M86.5 22C87.8807 22 89 23.1193 89 24.5C89 25.8807 87.8807 27 86.5 27C85.1193 27 84 25.8807 84 24.5C84 23.1193 85.1193 22 86.5 22Z" fill="#E4CDA0"/>
</svg>
